<?xml version="1.0" encoding="iso-8859-1"?>
<!-- Generator: Adobe Illustrator 18.1.1, SVG Export Plug-In . SVG Version: 6.00 Build 0)  -->
<svg version="1.1" id="Layer_2" xmlns="http://www.w3.org/2000/svg" xmlns:xlink="http://www.w3.org/1999/xlink" x="0px" y="0px"
	 viewBox="0 0 800 800" style="enable-background:new 0 0 800 800;" xml:space="preserve">
<path style="fill:#302512;" d="M599.6,404.9c-3.1-9.9-7.3-19.6-11.8-29c-7.4-15.6-18.1-28.8-32.2-39.2
	C540,325.2,522.5,318,503.1,315c-2.8-0.4-5.4-2.6-8.5-4.2c1.4-1.6,1.6-2,1.8-2.1c0.8-0.3,1.6-0.6,2.4-0.8
	c10.8-2.5,20.6-7.4,29.8-13.1c13.6-8.4,23.4-20.1,31.9-33.3c10.3-15.9,14.1-33.6,13.4-51.6c-0.4-11.2,0.6-23-5.2-33.8
	c-4.6-8.5-6.7-18.4-12.2-26.2c-15.9-22.7-36.5-40.4-64.2-49c-4.9-1.5-9.9-2.6-14.7-4.3c-18.8-6.5-38.2-6.5-57.6-4
	c-6.6,0.8-13.2,2.5-19.5,4.5c-12.5,3.9-25,7.8-37.1,12.7c-10.6,4.3-19.3,11.8-28.3,18.8c-20.4,15.9-32.3,36.6-39.3,60.5
	c-1.3,4.3-2.5,8.7-3.6,13c-1.8,7.2-4.9,14.5-5,21.7C286.9,379,287,522,287,677.2c0,9,14.8,23.2,24.1,23.1c13.9-0.1,2.8-0.7,16.7,0
	c8.1,0.4,23.1-14.6,23.1-22.3c-0.2-47.5-0.1-82.8-0.1-130.3c0-4.2-0.2-8.4,0.1-12.5c0.1-1.6,1.4-3.1,2.2-4.6c1.4,0.7,3,1.2,4.1,2.3
	c10.2,9.8,19.2,20.6,32.4,27.3c13.2,6.6,26.6,12.6,41.3,14.5c26.3,3.4,52.4,2.8,78.1-4.7c21.2-6.2,39.3-17,54.5-32.5
	c13.4-13.7,23.4-29.3,30.1-47c2.4-6.4,5.5-12.8,6.2-19.5c1.6-14.9,2.4-30,2.6-45C602.7,419,601.7,411.6,599.6,404.9z M541.9,442.9
	c-0.5,16.5-2.8,33.4-12.4,47.9c-7.7,11.7-16.8,22-29.3,29.7c-18.6,11.5-38.8,14.7-60.1,12.2c-19.4-2.2-36.2-10.1-50.8-22.8
	c-8.7-7.5-16.1-16-21.6-25.7c-9.5-16.5-15.9-34.2-15.9-53.5c0-35.8,0-71.5,0-107.3c-0.3,0-0.6,0-0.9,0c0-31.3,0-62.5,0-93.8
	c0-16.9,2.6-33.4,10-48.7c9.5-19.7,24.9-32.6,47.3-37.9c12.8-3,25.5-3.6,38.3-2.7c11.9,0.8,23.6,3.9,33.4,10.6
	c8.5,5.9,17.2,12.3,23.7,20.1c6.8,8.2,11.3,18.1,13.5,29.1c2.6,12.8,1.3,25.1-1.7,37.1c-1.8,7.3-6.7,14-10.7,20.7
	c-7.3,12.1-19.6,18.8-32.2,23.9c-10,4-21,6.1-31.7,7.9c-10.1,1.7-20.5,2-30.7,3c-6.3,0.6-7.3,1.7-7.4,7.8c0,9.4,0.1,18.7,0,28.1
	c-0.1,4.7,2.2,6.5,6.9,6.6c11.5,0.2,23.1,0.1,34.6,1.3c21.9,2.3,42.5,9,59.7,22.5c11.1,8.7,19.9,19.5,26.8,31.9
	C539.6,407.3,542.4,425,541.9,442.9z"/>
</svg>
