<?xml version="1.0" encoding="iso-8859-1"?>
<!-- Generator: Adobe Illustrator 18.1.1, SVG Export Plug-In . SVG Version: 6.00 Build 0)  -->
<svg version="1.1" id="Layer_3" xmlns="http://www.w3.org/2000/svg" xmlns:xlink="http://www.w3.org/1999/xlink" x="0px" y="0px"
	 viewBox="0 0 800 800" style="enable-background:new 0 0 800 800;" xml:space="preserve">
<g>
	<path style="fill:#302512;" d="M540.9,373.9L540.9,373.9L540.9,373.9z"/>
	<path style="fill:#302512;" d="M195,537.8C195,533.1,192,533.2,195,537.8L195,537.8z"/>
	<path style="fill:#302512;" d="M184,545.2C184.2,541.6,183.4,545.1,184,545.2L184,545.2z"/>
	<path style="fill:#302512;" d="M533.5,320.1L533.5,320.1L533.5,320.1z"/>
	<path style="fill:#302512;" d="M573.1,380.3c0,0,0-0.1-0.1-0.2l0,0C573,380.2,573.1,380.3,573.1,380.3z"/>
	<polygon style="fill:#302512;" points="597.9,421.7 597.9,421.7 597.9,421.7 	"/>
	<path style="fill:#302512;" d="M577.2,442.8L577.2,442.8L577.2,442.8L577.2,442.8L577.2,442.8z"/>
	<path style="fill:#302512;" d="M583.1,402.1L583.1,402.1L583.1,402.1L583.1,402.1z"/>
	<path style="fill:#302512;" d="M609.9,506.3c0.3,0.6,0.5,1.1,0.7,1.7c-0.9-2.4-2.2-4.7-3.4-7C608.1,502.8,609.1,504.5,609.9,506.3z
		"/>
	<path style="fill:#302512;" d="M574,383L574,383L574,383z"/>
	<path style="fill:#302512;" d="M533.2,324.1C533.2,324.4,533.2,324.3,533.2,324.1L533.2,324.1z"/>
	<path style="fill:#302512;" d="M571,460.5c0.2,0.4,0.5,0.8,0.7,1.2c0.1,0.1,0.2,0.3,0.3,0.4C571.6,461.5,571.3,461,571,460.5z"/>
	<path style="fill:#302512;" d="M610,515.5C611.3,513.9,610.5,514.8,610,515.5L610,515.5z"/>
	<path style="fill:#302512;" d="M792.7,634.5c-1.5-2.3-3.1-4.6-4.6-6.8c-2.4-3.6-4.9-7.2-7.3-10.8c-3.2-4.8-6.4-9.5-9.6-14.3
		c-3.9-5.8-7.8-11.5-11.6-17.3c-4.4-6.6-8.9-13.2-13.3-19.8c-4.9-7.3-9.8-14.6-14.8-21.9c-5.3-7.8-10.5-15.6-15.8-23.4
		c-5.5-8.2-11-16.4-16.5-24.5c-5.6-8.4-11.3-16.7-16.9-25.1c-5.7-8.4-11.3-16.8-17-25.2c-5.6-8.3-11.2-16.5-16.7-24.8
		c-5.4-8-10.8-16-16.2-24c-5.1-7.6-10.2-15.1-15.3-22.7c-4.7-7-9.4-13.9-14.1-20.9c-4.2-6.2-8.3-12.4-12.5-18.5
		c-3.5-5.3-7.1-10.5-10.6-15.8c-2.8-4.2-5.6-8.3-8.4-12.5c-2-2.9-4-5.9-5.9-8.8c-1-1.5-2.1-3.1-3.1-4.6c-0.1-0.2-0.3-0.4-0.4-0.6
		c-2.8-6.6-5.6-13.2-8.5-19.8c0.3-0.9,0.7-1.7,1.1-2.6c2.1-4.7,4.3-9.3,6.4-14c2.8-6.2,5.7-12.2,8.1-18.6c1.8-4.8,3.1-10,4.2-15.2
		c1.3-5.9,1.9-12,3.2-17.9c0.2-1,1.9-1.4,3-2c0.3-1.1,0.5-2.9,0.8-2.9c5.5-0.3,5-6,5-10.5c0-9.7,1.1-19.1,3.1-28.2
		c0.5-2.4,2.4-4.3,3.7-6.4c0.8,1.3,1.9,2.4,2.3,3.9c2,7.2,3.8,14.5,5.6,21.9c0.4,1.8,0.4,3.8,0.8,5.7c0.7,4,2,7.8,2.3,11.8
		c1.5,21-1.4,42.1,2.3,63.2c1.9,10.5-0.4,21.7,3.2,32.7c2.7,8.2,2.2,18.2,3.6,27.2c0.7,4.7,2.1,9.3,3.4,13.9c1,3.6,1.8,7.7,3.8,10.3
		c3.6,4.8,5.1,11,7.7,16.4c1.4,3,3,5.8,4.6,8.7c0.7-0.6,1.4-1.2,2.1-1.8c-1.1-3.3-2.5-6.5-3.4-9.8c-1.4-4.9-2.4-10.1-3.8-15
		c-1-3.3-2.5-6.4-3.6-9.7c-1.7-4.8-3.7-9.6-4.6-14.7c-0.9-4.8,0.4-10.6-1-14.9c-3.9-11.3-1.4-22.6-1.9-33.7c3.7-1.3,5.3,0.1,5.3,4.5
		c0,2.1,0.1,4.3,0.7,6.2c1.6,5.3,3.7,10.4,5.2,15.8c2.3,8,0.8,18.5,8.7,22.6c0.1,0,0.1,0.4,0.2,0.5c3,5,6,10.1,9,15
		c0.9,1.5,2.6,2.3,3.1,3.9c1.3,4.3,2.1,8.9,3.4,13.3c0.5,1.8,1.7,3.4,2.7,4.9c2.9,4.5,7.3,8.2,8.6,13.4c2.1,8.6,7.5,12.8,11.4,18.9
		c1.5,2.3,2.8,4.9,3.8,7.6c1.3,3.5,2,7.5,3.5,10.8c1.7,4,4,7.6,6.1,11.3c1.2,2.1,2.6,4,3.9,5.9c1.6,2.3,3.4,4.4,4.7,7
		c1.7,3.2,3.2,6.6,4.6,10c2.3,5.8,5.1,11.5,6.6,17.7c1.2,4.6,3.3,6.8,6,9.4c1.5,1.4,2.5,4.3,3.2,6.8s0.7,5.3,0.8,6.6
		c4.1-0.5,7.3-1,10.5-1.2c0.2,0,0.4,1.4,0.8,1.9c1.6,1.9,3,4.4,4.8,5.5c3.5,1.9,7.2,3.1,7.3,9.6c0,0.7,0.8,1.4,1.2,2
		c2.6,3.9,5,8.3,8,11.6c1.9,2.1,3.7,8.8,7.5,2.4c-1.6-3-4.1-5.7-4.6-9c-1.6-10.6-2.4-21.4-3.5-32.1c-0.3-2.5,0-5.8-1.1-7.2
		c-3.6-4.6,1.7-5.9,1.4-9c2.1,0,4.4-1.8,5.8,2.4c1,2.9,2.3,6,4.1,8c3.9,4.2,4.6,10.8,7.3,15.9c0.8,1.6,1.8,3.2,2.6,4.8
		c0.2-2.3,0.7-4.6,0.7-6.8c0-1.2-0.9-2.3-1.4-3.4c-1.4-3.4-2.9-6.8-4.3-10.3c-2-5-3.8-10.1-5.9-15.1c-0.9-2.1-2.2-4-3-6.1
		c-2.3-5.6-4.3-11.5-6.7-17c-3.5-7.9-7.3-15.7-11.1-23.4c-3.9-8-7.9-16-14-21.4c-2.7-2.4-5.6-4.7-7.9-7.7c-1.3-1.8-1.6-5-2.4-7.5
		c-1.9-5.1-3.5-10.4-5.8-15.2c-2.1-4.3-2.2-9.5-5-13.5c-2.7-3.8-6.2-7-6.8-13.5c-0.3-3.4-3.4-6.4-5.3-9.5c-2-3.1-4.1-6-6.2-9
		c-3.6-5.1-7.3-10.1-10.8-15.3c-1.8-2.7-4.1-4.4-4.4-9.1c-0.3-4.7-2.6-9.3-4.1-13.8c-1-2.9-2.2-5.7-3.5-8.2
		c-2.3-4.4-4.7-8.7-7.3-12.8c-2.4-3.8-4.8-7.9-7.8-10.8c-8.5-8.5-15.5-18.6-20.1-32c-6-2.1-6.9-3.5-7.7-11.5
		c-0.2-1.6-0.8-3.1-1.5-4.5c-3.9-8-9.4-14.6-10.9-24.6c-0.5-3.7-1.7-8.3-3-11.7c-2-5.2-4.4-4.1-6.9-17.1c-1.6,0-4.3,0-6.1,0
		c-1.5,13-2.5,6.4-3.6,8.6c-2.4,4.7-5,9.6-7.4,14.4c-1.4,2.9-2.4,6.4-3.8,9.3c-2.3,4.7-5.7,7.8-9.3,10.8c-4.5,3.7-9.2,3.8-12.9-1.1
		c-0.5-0.6-1.2-0.8-1.8-1.1c-2-0.8-3.9-1.6-6.2-2.6c-1,1.4-2.6,3.3-3.9,5.5c-3,5.3-5.5,11.1-8.7,16.1c-3.1,4.8-8.8,11.5-12.9,13.6
		c-0.3,0.2-0.5,0.4-0.8,0.6c-1-3.2-1.8-6.5-2.5-9.8c-1-4.7-1.8-9.4-2.8-14.1c-1-4.3-2.2-8.3-4.3-12.2c-2.3-4.2-4.7-8.3-7.1-12.5
		s-4.9-8.3-7.4-12.4c-1-1.7-2.1-3.2-3.6-4.5c-1.3-1.2-2.6-2.5-3.3-4.1c-2.1-5.1-3.6-10.5-5.3-15.7c-0.7-2.1-1.4-4.3-2.2-6.3
		c-0.4-1.1-1-2.2-1.6-3.2c-1-2-1.8-4.1-2.7-6.2c-1.8-4.1-4-7.9-6.1-11.8c-2-3.6-4-7.2-6.7-10.3c-1.2-1.3-2.4-1.8-4.2-1.6
		c-1.7,0.2-3.4,0.7-4.9,1.4c-1.5,0.7-2.2,1.9-2.8,3.4c-0.7,1.7-1.3,3.5-2,5.2c-1.7,4.3-3.1,8.7-5,12.9c-1.8,4.1-4,8-6.6,11.6
		c-2.6,3.5-5.3,7-7.2,10.9c-2,4-3.4,8.3-5.3,12.3c-2,4.1-4.2,8.1-6.4,12.1c-0.2,0.4-0.4,1-0.7,1.4c-0.5,0.5,0,0.2-0.6,0.2
		c-0.2,0-0.4-0.1-0.6-0.2c-0.7-0.2-1.4-0.2-2.1-0.2c-1.5,0.1-2.9,0.6-4.2,1.4c-3.2,2.2-4.7,6-6.3,9.4c-1.8,4-3.4,8.2-5.3,12.2
		c-0.9,1.9-1.9,3.8-3,5.6c-1.1,1.9-2.4,3.6-3,5.7c-0.6,1.8-0.8,3.7-1.1,5.6c-0.4,2.2-0.9,4.4-1.4,6.5c-0.5,2-1.1,4.1-1.9,6
		c-0.9,2.1-2,4.1-3.1,6.1c-2.2,4.2-4.5,8.3-7,12.3c-2.1,3.3-4.2,6.8-7,9.6c-1.1,1.1-2.4,2.1-3.9,2.5c-1.7,0.4-3.4-0.2-4.8-1.2
		c-0.2-0.1-0.4-0.3-0.6-0.4c-0.4-0.4-0.2-0.2-0.3-0.6c-0.1-0.5,0-1.1,0-1.6c0-0.9-0.1-1.7-0.3-2.6c-0.3-1.1-0.7-2.4-1.8-3
		c-0.4-0.2-0.9-0.3-1.4-0.3c-0.3,0-0.6,0.1-0.8,0.2c-0.5,0.2-0.8,1-1.1,1.5c-1.1,1.9-2.2,3.8-3.3,5.7c-1.1,1.8-2.1,3.6-3.2,5.4
		c-0.5,0.8-1,1.6-1.5,2.4c-0.4,0.6-0.7,1.6-1.4,1.8c-1.9,0.6-2.6-1.5-3.2-2.8c-1.1-2.1-2-4.3-3-6.5c-1.9-4.1-3.4-8.5-5.9-12.3
		c-2-3.2-5-5.8-6.3-9.5c-0.5-1.5-0.9-3.2-2.4-4c-0.9-0.5-2-0.5-3-0.5c-0.6,0-1.2,0-1.8,0.1c-0.5,0-1,0.1-1.5,0.3
		c-0.3,0.1-1.1,0.1-1.4,0.3c-0.2,0.2-0.4,1.1-0.5,1.4c-0.2,0.5-0.3,0.9-0.5,1.4c-0.4,1-0.7,2-1.1,3.1c-1.4,4-2.8,8-4.2,11.9
		c-1.6-1.3-3.3-2.2-4.7-3.7c-1.5-1.6-2.4-3.7-3.4-5.7c-2.1-4.2-5-7.9-7.8-11.7c-6-8.1-11.2-16.8-16.4-25.5
		c-2.6-4.4-5.2-8.7-7.6-13.2c-2.1-4.1-4-8.3-6.2-12.3c-1.1-2-2.4-3.9-3.6-5.8c-0.4-0.7-0.7-1.4-0.9-2.1c-0.8-2.4-1.4-4.8-2.1-7.1
		c-0.7-2.2-1.6-5.2-3.5-6.6c-0.3-0.3-0.7-0.4-1.2-0.5c-0.4-0.1-0.8,0.2-1.2,0.2c-0.5,0-1.1-0.4-1.5-0.6c-0.5-0.2-0.9-0.4-1.4-0.5
		c0,0.2,0,0.4,0,0.6c-1.6-0.5-3.8-1-5.5-0.4c-1.4,0.6-2.5,2.5-3.3,3.7c-1.1,1.6-2.2,3.2-3.2,4.9c-2,3.4-3.9,6.9-5.8,10.3
		c-1,1.6-2.1,3.2-2.8,5c-0.7,1.7-1.1,3.5-1.7,5.2c-1.3,3.9-3.4,7.6-5.1,11.3c-1.8,3.8-3.7,7.7-5.5,11.5s-3.5,7.6-5,11.5
		c-1.5,3.8-2.9,7.7-4.6,11.4c-3.4,7.6-7.7,14.8-11.5,22.1c-3.3,6.4-7.6,12.2-10.6,18.7c-1.5,3.2-2.6,6.5-3.4,9.9
		c-0.4,1.8-0.7,3.6-0.9,5.5c-0.2,2-0.1,4.1-0.5,6.1c-1.8,8.4-4.4,16.7-6.2,25.1c-0.6,2.9-1.3,6.2-3.4,8.4c-1.8,1.8-4,1.9-6.3,1
		c-2.9-1.2-5.3-0.4-7.3,1.9c-2,2.2-3.6,5-4.6,7.9c-1.2,3.5-1.7,7.1-2.7,10.7c-1.1,4-2,8.1-3.4,12c-1.3,3.7-3.2,7.1-4.5,10.8
		c-1.3,3.7-1.6,7.6-2.5,11.4c-0.9,3.7-2.1,7.3-3.5,10.8c-1.5,3.6-3.2,7.1-4.6,10.8c-3,7.6-5.3,15.5-8.3,23.1
		c-1.4,3.6-2.8,7.3-4.5,10.8s-3.8,6.7-6.2,9.8c-5,6.7-10.4,13.1-15.7,19.6c-5.4,6.6-10.6,13.3-15.8,20c-2.6,3.3-5.2,6.7-7.9,9.9
		c-2.6,3.1-5.4,6-7.9,9.1c-5.1,6.3-9.7,13.3-13.2,20.6c-1.6,3.3-2.7,6.7-4,10.1c-0.7,1.6-1.4,3.2-2.2,4.8c-0.8,1.5-1.9,2.8-2.6,4.3
		c-1.2,2.8-0.9,5.9-0.7,8.8c1-0.8,2.2-1.3,2.9-2.3c0.8-1,1.3-2.4,1.8-3.6c0.9-2.3,1.5-4.8,2.8-6.9c3.2-5.2,6.8-10.1,9.6-15.5
		c1.4-2.8,2.6-5.8,4.2-8.6c1.6-2.7,3.4-5.1,5.3-7.6c3.2-4,7.4-8.4,13-6.8c0.7,0.2,1.2,0.4,1.9,0.4c0.3,0,1.1,0.1,1.2-0.1
		c0.2-0.2,0.3-1,0.3-1.3c0.4-1.5,0.8-3.1,1.2-4.6c0.1-0.4,0.2-2,0.6-2.2c0.2-0.1,0.9-0.1,1.1-0.1c0.5,0,0.9-0.1,1.4-0.1
		c0.7,0,1.4-0.2,2.1-0.1c0.4,0,0.2-0.1,0.4,0.2c0.2,0.2,0.2,0.5,0.3,0.7c0.2,0.4,0.3,0.9,0.5,1.3c1.1,3.2,2.2,6.4,3.4,9.6
		c1.1,2.9,2.5,5.8,3.6,8.7c1,2.8,1.6,5.9,1.6,8.9c0,2.9-1.1,5.6-2.2,8.2c-1.2,2.7-2.2,5.3-2.6,8.2c-0.3,2.1-0.6,4.4-1.8,6.1
		c-1.1,1.7-2.5,2-4.4,2.2c-0.5,0-0.3-0.1-0.5,0.3c-0.1,0.3-0.1,0.8-0.1,1.1c-0.1,0.6-0.1,1.2-0.2,1.7c-0.1,0.9-0.2,1.8-0.4,2.6
		c-0.3,1-0.7,2-1.7,2.5c-0.5,0.3-1.1,0.4-1.7,0.5c-0.4,0.1-0.8,0.2-1.1,0.2c-0.2,0-0.4,0.1-0.6,0.1c-0.5,0-0.5-0.1-0.8-0.6
		c-0.8-1.4-1.5-2.8-2.3-4.2c-0.4,0.8-1,1.4-1.3,2.3c-0.4,0.9-0.5,2-0.6,2.9c-0.4,2-0.8,4.1-1.2,6.1c-0.8,4-1.5,8.1-2.3,12.1
		c-0.2,0.9-0.3,1.8-0.5,2.8c-0.1,0.7-0.3,0.5-1,0.4c-0.6-0.1-1.1-0.1-1.7-0.2c-1.7-0.2-3.7-0.6-5.4-0.2c-2.6,0.6-3.9,3.2-4.8,5.5
		c-1,2.5-1.8,5-3.7,7c-1.6,1.7-3.5,3.1-5.1,4.8c-0.8,0.9-1.5,1.8-2,2.9c-0.3,0.6-0.5,1.2-0.7,1.9s-0.2,1.5-0.5,2.2s-1,1.5-1.5,2.2
		c-0.5,0.9-1.1,1.8-1.6,2.7c-1.1,1.8-2.2,3.6-3.2,5.4c-1.1,1.9-2.3,3.9-3.3,5.9s-1.6,4-2.2,6.1c-1.3,4.3-2.5,8.7-3.7,13.1
		c-1.7-1.6-3.4-3.3-5.2-4.9c-0.5,3.7-0.8,7.4-1.5,11c-0.7,3.8-1.9,7.5-3,11.1c-1.1,3.7-2.5,7.6-3.2,11.4c-0.3,1.5-0.5,3.7,0.1,5.1
		c0.4,0.8,1.8,1.9,2.7,1.6c1.3-0.4,2.5-2.4,3.1-3.5c0.8-1.5,1.5-3.1,2.4-4.6c1.6-2.6,3.5-5,5.8-7.1c2.1-2,4.5-3.7,7.1-5.2
		c1.3-0.8,2.6-1.4,3.9-2.1c0.3-0.1,0.6-0.3,0.9-0.4c0.5-0.2,0.6-0.2,0.7-0.7c0.2-1,0.1-2.1,0.2-3.1c0.1-2.3,0.3-4.5,0.5-6.8
		c0.1-1.3,0.1-2.8,0.6-4.1c0.9-2.2,3.7-0.7,5.2,0c-1,1.5-2.3,2.6-2.5,4.4c-0.2,2.1,0.3,4.2,0.4,6.3c1-0.7,2.3-1.1,3-2
		s1.2-2.3,1.6-3.3c1.1-2.7,2.1-5.5,3.2-8.2c2.3,1.4,4.7,2.8,7,4.2c2.3-4.6,4.6-9.2,6.7-13.9c0.5-1.2,1-2.3,1.6-3.5
		c0.2-0.6,0.5-1.1,0.7-1.7c0.2-0.5,0.6-1.8,0.9-2.1c0.2-0.2,1-0.2,1.2-0.2c0.5-0.1,1-0.2,1.4-0.3c0.3,0,1,0,1.2-0.2
		c0.3-0.3,0.4-1.7,0.5-2.2c1.1-4.8,1.6-9.8,3.3-14.5c0.8-2.2,2.2-4.1,2.9-6.3c0.8-2.3,1-4.8,1.7-7.1c1.6-5.3,3.7-10.5,5.4-15.8
		c1.7-5.2,2.9-10.5,4.4-15.7c1.4-4.9,3.4-9.7,5.1-14.5s3.2-9.7,4.2-14.8c0.5-2.5,0.6-5.2,1.3-7.6c0.8-2.8,1.7-5.5,2.6-8.3
		c1.7-5.3,3.4-10.6,4.7-16c1.3-5.3,3.1-10.5,4.6-15.7c1.6-5.3,2.7-10.7,3.9-16.2s2.5-10.9,3.9-16.4c1.3-5.3,2.5-10.6,4-15.9
		c1.3-4.6,3-9.2,3.5-14.1c0.1-1.2,0.2-2.3,0.1-3.5c0-1.1-0.4-2.2,0.3-3.1s1-1.9,1.3-3c0.5-1.4,0.9-2.7,1.4-4.1
		c1.6-4.9,3.1-9.8,3.4-15.1c0.1-2.3,0.2-4.7,0.8-7c0.6-2.5,2.1-4.4,3.2-6.7c2-4.1,3-8.7,4.3-13.1c1.4-4.7,3.2-9,5.9-13.1
		c1.3-2,2.8-4,4.1-6c0.3,0.2,0.5,0.5,0.8,0.7c0.4,0.4,0.4,0.3,0.4,0.8c0,0.7-0.3,1.5-0.4,2.2c-0.2,1.5-0.5,3-0.7,4.5
		c-0.5,3-0.9,6-1.6,8.9c-1.2,5.5-3.1,10.7-4.6,16.1c-1.5,5.5-2.6,11.1-2.8,16.8c0,1.3,0.1,2.7,0,4c-0.1,1.5-0.5,3-1,4.4
		c-0.8,2.3-1.6,4.5-2,6.9c-0.7,4.6-0.8,10.6,2.1,14.5c1.3-7.2,2.4-14.5,3.5-21.7c0.3-1.9,0.6-3.8,0.9-5.6c0.3-1.8,0.4-3.7,0.9-5.3
		c1.2-3.4,2.9-6.7,4.3-10c2.9-6.9,5.1-14.1,7.4-21.3c2.2-7.1,4.3-14.4,6.2-21.6c0.9-3.6,1.8-7.2,2.5-10.9c0.7-3.6,1.2-7.2,2.1-10.8
		c0.8-3.4,1.9-6.6,3.2-9.8c1.3-3.1,2.6-6.2,3.3-9.4c1.3-6.6,3.3-12.7,6.1-18.8c1.4-3,2.8-5.9,4.3-8.8c0.9-1.7,2.2-3.6,4.3-3.2
		c0.8,0.2,1.7,0.5,2.5,0.8c0.5,0.2,0.4,0.1,0.5,0.5c0,0.4-0.1,0.9-0.1,1.3c-0.1,0.9-0.1,1.8-0.2,2.8c-0.2,3.5-0.2,7.1-0.5,10.6
		c-0.3,3.7-1.1,7.2-2,10.7s-1.7,7-2.4,10.5c-0.7,3.6-1.4,7.2-2.1,10.8c-0.7,3.5-1.7,7-2.6,10.5c-1.7,6.7-2,13.6-3.3,20.4
		c-1.1,5.7-3.7,10.9-7.2,15.6c-3.3,4.4-7.2,8.4-9.7,13.4c-1.3,2.6-2.3,5.4-3,8.3c-0.8,3.3-1,6.7-2,9.9c-2.1,7.1-4.5,14-6.1,21.2
		c-0.8,3.6-1.5,7.3-2.1,11c-0.3,1.8-0.7,3.7-1,5.5c-0.3,1.7-0.9,3.3-1.4,5c-2.1,7.3-4.3,14.6-6.2,22c-0.9,3.7-1.8,7.4-2.7,11.1
		c-0.8,3.4-1.5,6.8-2.4,10.1c-0.8,3.1-2.5,5.8-3.9,8.6c-1.4,2.9-2.6,5.8-3.4,9c-0.2,0.7-0.3,1.5-0.4,2.2c-0.1,0.8-0.1,1.7-0.3,2.5
		s-1.6,1.3-2.2,1.8c0.1-2.6-0.2-5.2-0.1-7.8c0-1.1,0.1-2.1,0.4-3.2c0.3-1.1,0.9-2.1,1.3-3.2c1.7-4.8,2.3-10,3.2-15
		c0.9-5.1,2.5-10.1,3.3-15.2c0.4-2.7,0.7-5.4,1.1-8.1c0.2-1.2,0.3-2.5,0.5-3.7c0.2-1.4,0.2-3,0.6-4.3c0.4-1.2,1.2-2.2,1.7-3.4
		c0.5-1.4,0.8-2.8,1-4.3c0.2-3.1-0.4-6.1-1.6-8.9c-1.3,3-1.4,6.4-1.8,9.6c-0.5,3.3-1.6,6.5-2.6,9.7c-2,6.5-3.8,13-4.9,19.7
		c-1.1,6.7-1.9,13.5-2.9,20.3c-0.5,3.3-1.7,6.6-2.6,9.8c-1,3.3-1.9,6.7-2.8,10c-1.7,6.6-3,13.3-4.6,19.9c-1.5,6.5-3.7,12.7-6.4,18.9
		c-5.4,12.3-7.6,25.6-12.3,38.1c-2.3,6.2-5.1,12.3-7.6,18.5s-4.6,12.4-6.1,18.9c-0.4,1.6-0.2,2.9-0.2,4.5c0.9-0.3,1.6-0.4,2.4-1
		s1.6-1.2,2.2-1.9c0.7-0.8,1-1.7,1.4-2.6c0.5-1.2,1.1-2.4,1.6-3.5c1.9-4.4,3.9-8.8,5.7-13.2c1.9-4.5,3.7-9,5.3-13.6
		c1.6-4.5,3.2-9,5-13.3s3.8-8.6,5.7-12.8c1.9-4.3,3.5-8.8,5-13.3c2.9-9.3,5.4-18.7,8.3-27.9c1.4-4.5,2.9-9,4.6-13.4
		c1.8-4.5,3.7-9,5.4-13.5s2.9-9,4.4-13.6c1.4-4.5,3.3-8.8,5.1-13.2c3.6-8.9,6.6-18,9.4-27.2c1.4-4.6,2.8-9.3,3.8-14
		s1.9-9.4,2.8-14.1c0.9-4.7,1.9-9.5,2.9-14.2c0.9-4.2,1.9-8.3,3.9-12.1c2.2-4.2,4.7-8.2,7.2-12.2c2.4-3.7,4.7-7.5,7.1-11.1
		c1.2-1.8,2.4-3.6,3.6-5.4c0.6,2.9,1.1,5.8,1.7,8.6c0,0.2,0,0.8,0.2,0.9c0.1,0.1,1.2,0.2,1.4,0.2c0.3-0.1,0.2-0.2,0.3-0.6
		c0-0.2,0.1-0.4,0.1-0.6c0.1-0.6,0.2-1.2,0.3-1.8c0.4-1.9,0.7-3.9,1.1-5.8c0.7-3.9,1.5-7.8,2.2-11.7c0.3-1.9,0.7-3.9,0.9-5.8
		c0.1-1.8,0.1-3.6,0.3-5.4c0.4-3.6,1.7-7.2,2.7-10.7c1.1-3.6,2.2-7.1,3-10.7c1.6-7.6,2.3-15.4,3.1-23.1c0.2-2,0.4-4,0.6-6
		c0.2-1.8,0.2-3.7,0.7-5.4c0.9-3.6,2.1-7.1,3-10.6c1.8-7.3,3.1-14.8,3.4-22.3c0.3-7.1-0.7-14.2,0.5-21.2c0.3-1.7,0.7-3.5,1.3-5.1
		c0.6-1.7,1.5-3.2,2.2-4.8c1.4-3.2,2.5-6.5,3.6-9.8c1.1-3.4,2.3-6.7,3.9-9.9c1.6-3.2,3.6-6.2,5.5-9.3c3.2-5.2,5.5-11.9,11-15.1
		c1.1-0.7,2.4-1.1,3.6-1.4c0.4,3,1.5,5.8,2.4,8.7c0.4,1.4,0.6,2.9,1,4.3c0.4,1.3,1,2.5,1.4,3.8c0.5,1.5,0.5,2.9,0.6,4.4
		c0,1.7,0.1,3.5,0.1,5.2c0.1,3.4,0.2,6.8,0.2,10.2c0.3,13.6,0.6,27.3,0.6,40.9c0,3.2,0,6.3,0,9.5c0,2.8-0.1,5.6-0.7,8.3
		c-0.3,1.4-0.8,2.8-1.4,4s-1.4,2.3-2,3.4c-1.3,2.4-1.9,5.2-2.6,7.8c-1.5,6.2-3,12.4-4.9,18.5c-1.9,6.2-4.4,12.3-6.2,18.5
		c-1.4,5.2-1.3,10.9-3.5,15.9c-0.6,1.4-1.4,2.6-1.9,4s-0.8,2.8-1,4.3c-0.4,2.9-0.2,5.8-0.1,8.7c0.1,1.5,0.1,3,0.1,4.5
		c0.6-0.6,1.3-1.1,1.9-1.8c0.6-0.8,0.8-1.7,1-2.7c0.5-2.4,1-4.7,1.5-7.1c0.5-2.3,0.9-4.6,1.4-7c0.1-0.5,1.1-6.5,1.3-6.4
		c0.1,0,0.3,0.8,0.4,0.9c0.4,0.5,0.7,0.3,0.9-0.2c1.7,7.3,1.4,14.9,1.2,22.4c-0.1,3.8-0.2,7.6-0.1,11.4c0.1,1.9,0.2,3.8,0.4,5.7
		c0.1,1,0.2,1.9,0.4,2.9c0.1,0.4,0.1,0.9,0.2,1.3c0.1,0.3,0,0.5,0.3,0.6c0.2,0.1,0.7,0,0.8,0c0.9,0,0.8-0.3,0.8-1.1
		c0.1-1,0.2-2,0.2-3c0.1-2.2,0.2-4.5,0.2-6.7c0.1-7.3,0-14.6,0.1-21.9c0-3.4,0.1-6.8,0.1-10.2c0-3.4,0-6.9,0.9-10.2
		c0.8-3.1,2.6-5.6,3.5-8.6c0.8-3,1.1-6.2,1.6-9.3c1.2-7.2,4.2-14.1,6.7-21c1.3-3.6,1.7-7.5,2.3-11.3c0.7-3.9,1.3-7.8,2-11.7
		c0.7-3.8,1.9-7.5,2.3-11.3c0.4-3.9,0.5-7.8,0.7-11.7s0.4-7.8,0.7-11.6c0.3-3.9,1.2-7.5,2.2-11.3c0.2-0.8,0.4-1.7,0.6-2.5
		c0.2-0.7,0.3-0.5,0.9-0.5c0.2,0,0.6,0,0.8,0c0.4,0.1,0.4,0.1,0.6,0.6c0.7,1.9,1.4,3.7,2,5.6c1.3,3.7,2.7,7.3,4,11
		c2.4,7,4,14.3,4.8,21.7c0.9,7.5,0.6,15,0.2,22.6c-0.4,7.8-0.9,15.6-1.8,23.3c-0.9,7.7-2.5,15.3-3.4,23c-0.4,3.8-0.8,7.6-1.5,11.4
		s-1.5,7.6-2.5,11.3c-1,3.8-2,7.6-3,11.3c-1,3.7-1.3,7.5-1.8,11.3c-0.5,4-1,7.9-1.5,11.9c-0.5,3.7-0.8,7.6-2.1,11.1
		c-1.2,3.2-3.2,5.7-4.9,8.6c-1.6,2.7-2.6,5.6-3.4,8.6c-0.8,3.3-1.1,6.7-1.5,10.1c-0.4,3.7-1.1,7.3-2.1,10.9c-1,3.7-2.2,7.3-3.4,10.9
		c-0.3-5.4-0.7-10.7-1.4-16c0-0.2,0-0.9-0.1-1s-0.7,0-0.9,0s-0.7-0.1-0.9,0c-0.1,0.1-0.1,0.8-0.2,1c-0.2,1.4-0.4,2.7-0.6,4.1
		c-0.2,1.3-0.4,2.6-0.6,3.9c-0.1,0.7-0.2,1.3-0.3,2c-0.1,0.3-0.1,0.7-0.2,1c0,0.2-0.1,0.4-0.1,0.6c0.1,0.4-0.1,0.5-0.4,0.4
		c-0.2,0-0.5,0-0.8-0.1c-0.6,0-0.6,0.1-0.8-0.5c-0.1-0.6,0-1.4,0-2c0-1.4,0-2.8,0-4.2c0-2.7,0-5.4-0.1-8.2c0-5.4-0.1-10.9-0.1-16.3
		c-0.1-6.2-0.1-12.5-0.2-18.7c-0.4,0-0.8,0-1.3,0c-0.2,0-1.1-0.1-1.3,0c-0.3,0.2-0.1,2.6-0.1,3c-0.1,1.9-0.1,3.8-0.2,5.8
		c-0.1,3.8-0.3,7.7-0.4,11.5c-0.3,7.7-0.5,15.4-0.8,23c0,0.2,0,0.6,0,0.8c-0.1,0.5,0.1,0.3-0.4,0.4c-0.2,0.1-1.3,0.2-1.4,0.1
		c-0.3-0.2-0.5-1.8-0.6-2.2c-0.5-1.8-0.9-3.7-1.4-5.5c-0.7,1.4-2.4,4.2-4.3,3c-1.5-0.9-2.3-3.2-3-4.8c-0.4,0.4-0.9,0.7-1.2,1.2
		c-0.3,0.4-0.3,1-0.4,1.5c-0.3,1.9-0.6,3.8-0.9,5.6c-0.6,3.7-1.1,7.4-1.7,11.1c-0.5,3.6-1.1,7.2-1.7,10.8c-0.3,1.9-0.9,4.6-2.7,5.8
		c-1.9,1.3-4.3-0.1-5.8-1.2c-0.5,1.2-1,2.3-1.5,3.5c-0.2,0.5-0.4,1-0.7,1.6c-0.3,0.7-0.7,0.6-1.4,0.6c0-3.3-0.3-6.7-0.3-10
		c0.1-3.2,0.7-6.3,1.4-9.4s1.4-6.2,2.5-9.1c0.5-1.4,1-2.7,1.6-4c0.6-1.2,1.3-2.4,1.8-3.6c1.7-4.7,1-10,3-14.6
		c0.5-1.1,1.1-2.1,1.9-3.1c0.8-0.9,0.5-2.1,0.7-3.2c0.7-3.3,1.8-6.5,2.7-9.7c1-3.6,2-7.3,2.9-11s0.7-7.5,0.9-11.3
		c-0.8,0.5-1.8,0.7-2.5,1.4c-0.8,0.8-0.9,2.2-1.2,3.2c-0.7,2.6-1.4,5.3-2,7.9c-1.3,5.2-2.6,10.4-4.5,15.4c-1.8,4.8-3.8,9.5-5,14.4
		c-0.7,2.5-1.1,5.1-1.4,7.6c-0.1,1.2-0.1,2.4-0.3,3.6c-0.1,1.4-0.7,2.7-1.2,4c-1.9,4.9-4.4,9.5-5.3,14.7c-0.9,5.4-1,11-1.8,16.4
		c-0.8,5.3-2.6,10.3-4.7,15.2c-1,2.3-2,4.6-3,6.9c-0.9,2.1-1.6,4.5-2.8,6.5c-0.8,1.4-2,2.2-3.1,3.3c-1.1,1.1-1.6,2.4-1.7,4
		c0,0.4,0.2,2.7-0.1,2.6c-0.2-0.1-0.3-0.5-0.5-0.6c-0.3-0.3-0.8-0.2-1.3-0.2c-0.4,0-0.8,0.3-1.2,0.2c-0.9-0.2-1.3-1.4-1.5-2.1
		c-3.7,3.8-5.4,9.2-6.6,14.2c-1.3,5.3-2,10.8-3.4,16.1c-1.4-1.1-3.3-1-4.7-2c-0.3,3.5-0.6,7-0.9,10.6c-0.1,1.6-0.3,3.3-0.4,4.9
		c-0.1,0.6,0.1,1.9-0.2,2.4c-0.2,0.5-1.1,1.2-1.5,1.5c-1.4-1.9-3-3.7-4.4-5.5c0.1,0.1,0.1,0.2,0.1,0.2c-0.8,0.1-1.5-0.1-2.3,0
		c-0.9,0.1-1,1-1.2,1.8c-0.8,2.1-1.5,4.3-2.1,6.4c-0.6,2.1-0.9,4.2-1.2,6.4c-0.2,1.7-0.3,3.5-0.8,5.2c-0.4,1.7-1.2,3.2-2.5,4.4
		c-1,0.9-1.8,1.8-2.5,2.9c-1.5,2.3-2.5,4.9-4.2,7c-0.8,1-1.7,1.9-2.8,2.4c-1,0.5-2.5,0.2-3.1,1.2c-0.9,1.6-1.6,3.4-2.4,5
		c-1.1,2.1-2.1,4.3-3.2,6.4c-0.9,1.8-2,3.2-2.3,5.2c-0.2,1.7-0.8,3.4-1.7,4.9c-1.6,2.7-4.1,4.7-6.2,7c-2.1,2.4-3.8,5-4.9,8
		c-0.6,1.7-0.9,3.4-1.1,5.2c-0.2,2,0.1,4.1-0.1,6.1c-0.2,1.9-0.7,3.6-1.2,5.4c-0.2,1-0.6,2.1-0.4,3.2c0.3,1.9,3,1.2,4.3,1
		c3.9-0.7,7.1-3.5,11-4.3c2.1-0.4,4.3-0.6,6.5-0.8c0.6-0.1,1.1-0.1,1.7-0.2c0.3,0,1.3,0,1.5-0.2s0.3-1.1,0.3-1.3
		c0.1-0.4,0.1-0.7,0.1-1.2c-0.1-3.7,0.3-7.3,2-10.7c0.8-1.6,2-3,3.2-4.4c1.1-1.3,2.3-2.7,3.8-3.7c1.3-0.9,2.9-1.4,4.5-1.2
		c0.8,0.1,1.4,0.4,2.2,0.1c0.8-0.3,1.2-1,1.7-1.7c1.8-2.4,3.7-4.6,5.5-7c3.9-5,7.1-10.5,8.1-16.9c0.3-1.9,0.4-3.7,0.4-5.6
		c1.5,0.2,3.1,0.5,4.6,0.7c0.2,0,0.9,0,1.1,0.2c0.2,0.2,0.2,0.8,0.2,1c0.2,0.8,0.3,1.6,0.5,2.4c0.4,2.6,0.4,5.4-0.5,8
		c-0.4,1.2-1,2.3-1.8,3.3s-1.9,1.7-2.6,2.7c-1.6,2.1-2,4.8-2.8,7.3c-1,3.1-2.5,5.9-4.1,8.8c-1.5,2.6-2.9,5.3-4.7,7.7
		c-0.8,1.1-1.8,2.2-2.8,3.1c-0.9,0.7-2,1.2-2.7,2.1c-1.4,1.9-1.6,4.3-2.9,6.3c-1.1,1.7-2.8,3-4.1,4.5c-1.6,2-2,3.9-2.1,6.4
		c-0.1,1-0.6,2-1.6,2.3s-1.8,0.7-2.6,1.4c-1.6,1.4-2.5,3.4-3.2,5.3c-1.5,4.6-1.9,9.3-4.4,13.6c-1.1,2-2.6,3.8-4.5,5.1
		c-1.8,1.2-3.9,1.5-5.7,2.7c-4,2.8-5.7,7.7-8.3,11.7c-3.2,5-4.7,11.2-9.3,15.2c-1.2,1-2.4,2-3.6,3.1c1.6,0.7,3.7,2.2,5.6,1.2
		c1.2-0.7,1.8-2,2.5-3.1c0.9-1.5,1.7-3,2.7-4.5c3.8-6.2,7.9-12.1,11.8-18.2c0.4,0.4,0.9,0.8,1.3,1.3c0.1,0.1,0.4,0.6,0.6,0.6
		c0.3,0.1,0.8-0.3,1.1-0.5c1.6-0.9,3.2-1.7,4.8-2.6c0.7-0.4,1.4-0.8,2.1-1.1c0.6-0.3,0.6-0.3,0.7-1c0-0.4,0.1-0.9,0.1-1.3
		c0.2-1.7,0.4-3.5,0.6-5.2c5.8,1.5,6.8-6.1,7.8-10.1c0.6,1.1,1,3.2,2.3,3.7c0.7,0.2,1.5,0.4,2.2,0.2c0.8-0.1,1-0.7,1.3-1.4
		c1.7-3.7,3-7.6,4.5-11.4c2.4,1.4,4.8,2.8,7.3,4.2c1-3,2.1-6,3.1-9c0.5-1.5,1-2.9,1.6-4.4c0.5-1.4,1.4-2.6,2.2-3.8
		c0.7,2.9,1.5,5.9,2.2,8.8c1-1,2-1.8,2.7-3c0.9-1.4,1.7-2.9,2.6-4.3c1.7-2.9,3.4-5.7,4.9-8.7c2.9-5.9,5.7-11.9,8.6-17.8
		c1.4-2.8,2.8-5.7,4.5-8.2c1.6-2.3,3.3-4.5,4.6-7c1.4-2.6,2.1-5.5,3.3-8.2s2.7-5.3,4.2-7.9c6.6-11.4,12.7-22.9,18.9-34.5
		c6.4-12,12.5-24.2,18.7-36.3c1-1.9,2.3-3.3,4.4-3.9c1.6-0.5,3.7-0.5,5,0.8c1.2,1.3,1.4,4,3.6,4.2c0.6,0,1.2-0.2,1.8-0.4
		c0.2-0.1,0.5-0.2,0.7-0.3c0.1,0,0.2-0.1,0.3-0.1c0.3-0.2,0.4-0.8,0.5-1.1c2.1-5.6,4.2-11.1,5.9-16.8c1.9-6.5,3.8-13,5.5-19.5
		s3.4-13.1,5.2-19.6c0.9-3.3,1.8-6.6,2.7-9.9c0.9-3,1.7-6,3.2-8.7c3.2-5.9,6.7-11.6,10-17.4c1.5-2.6,3.2-5.2,4.3-8.1
		c0.9-2.2,1.6-4.7,3.3-6.4c3.9-3.9,5.3-9.2,7.3-14.1s5-9.2,7-14c1.1-2.7,1.7-5.4,2.3-8.2c0.6-2.7,2.2-5,3.6-7.3
		c3.1-5.3,3.8-11.7,5.1-17.6c0.2-1.1,0.3-2.5,1-3.5c0.7-0.9,1.6-1.7,2.4-2.6c0.3,2.6,1,5.1,1,7.7c0.1,3-0.2,6.1-0.3,9.1
		c-0.3,6.5-0.6,13-0.9,19.5c-0.1,1.4,0,2.8-0.3,4.2c-0.3,1.5-0.8,3-1,4.5c-0.4,3.1-0.9,6.2-1.3,9.3c-0.2,1.6-0.4,3.1-0.6,4.7
		c-0.1,1.2,0.2,2.2,1.1,3c1.8,1.4,3.1-3.7,3.4-4.6c1-2.7,1.8-5.5,2.1-8.4c0.3-2.8,0.3-5.6,0.3-8.3c0.1-5.2,0.2-10.7,2.7-15.5
		c0.3-0.5,0.7-1,0.7-1.6c0.1-0.7,0-1.4,0.1-2c0.1-1.7,0.3-3.4,0.4-5.2c0.3-3.2,0.5-6.4,0.8-9.5c0.5-6.5,1.1-13,1.6-19.5
		c0.1-1.5,0.2-2.9,0.4-4.4c0.1-1.6,0.1-3.3,0.3-4.8c0.2-1.1,1.1-2.2,1.5-3.2c0.4-1.1,0.8-2.3,1-3.5c1-5.1,0.7-10.4,1.7-15.5
		c0.5-2.6,1.3-4.9,2.5-7.2c1-1.9,1.9-3.8,3.2-5.5c1.1-1.4,2.6-2.3,4.4-2.2c0.5,0,1,0.1,1.5,0.2c0.7,0.1,0.6,0.4,0.7,1
		c0.2,1.2,0.2,2.5,0.2,3.8c0,4.7-0.6,9.9,2.5,13.8c0.6,0.8,0.6,1.4,0.5,2.4c-0.2,1.4-0.5,2.9-0.8,4.3c-0.7,3-1.4,6-1.7,9
		c-0.7,6.4-0.4,12.9-0.5,19.3c0,2.7,0,5.4,0.1,8.2c0,1.1,0.1,2.2-0.1,3.3c-0.2,1.2-1,2-1.6,3c-2.5,4.6-1.6,10-2,15.1
		c-0.2,3-0.2,6-1,8.9c-0.8,3-1.5,6-2.4,8.9c-3.3,11.8-8.4,23.1-13.7,34.1c-1.3,2.7-2.6,5.5-3.9,8.2c1.9,0.8,4.1,1.1,6,0.1
		c1.7-0.9,2.7-2.5,3.5-4.2c1-2.1,1.6-4.4,2.6-6.5c1.1-2.2,2.3-4.3,3.5-6.5c1.1-2.2,2.1-4.4,2.8-6.8c0.3-1.3,0.5-2.7,0.9-4
		c0.4-1.4,0.9-2.8,1.5-4.2c1.1-2.7,2.5-5.2,3.5-7.9c1.1-2.9,1.8-5.9,2.5-9c1.4-6.1,3.2-12.1,5-18.1c1.9-6.1,3.5-12.3,4.6-18.7
		c1-6.2,1.3-12.4,2.6-18.5c1.2-6,2.9-12,4.7-17.9c1.8-6,3-12,4-18.1c0.5-3,1-6,1.9-8.9c0.9-3.1,1.9-6.2,2.8-9.4
		c0.9-3.1,1.8-6.3,2.7-9.4c0.8-2.9,1.3-5.9,2-8.9c1.3-5.9,3.6-11.3,6.2-16.7c0.7-1.4,1.3-2.7,2-4.1c0.3-0.7,0.7-1.4,1-2.1
		c0.2-0.4,0.3-0.7,0.5-1.1c0.1-0.2,0.2-0.5,0.3-0.7c0-0.3,0.1-0.4,0.4-0.3c0.6,0,1.6,0.9,2.1,1.2c0.7,0.6,1.3,1.3,1.7,2.2
		c1.1,2.2,1.1,4.7,1.1,7.2c0,3.1,0.1,6.3,0.1,9.4c0,2.9,0.1,5.9,0,8.8c0,1.2-0.1,2.4-0.4,3.6c-0.3,1.3-1.1,2.5-1.6,3.7
		c-2,5.2-2.6,10.8-3.2,16.4c-0.3,2.9-0.5,5.7-0.9,8.6c-0.4,2.9-1.1,5.8-1.6,8.8c-1,6.2-1.4,12.6-1.8,18.9c-0.2,3.1-0.4,6.1-0.6,9.2
		c-0.2,2.9-0.3,5.9-0.6,8.8c-0.2,1.3-0.8,2-1.4,3.1c-0.7,1.2-1.2,2.5-1.5,3.8c-0.6,2.6-0.6,5.2-0.5,7.8c0.1,2.6,0.3,5.1,0.2,7.7
		c0.6-0.7,1.4-1.3,2-2c0.7-0.8,0.9-1.6,1.2-2.7c0.6-2.4,1.1-4.8,1.6-7.3c1-4.7,1.8-9.5,3.2-14.2c2.8-9.4,6.8-18.5,10.5-27.6
		c3.7-9.2,7.5-18.5,11.3-27.7c1.8-4.4,3.7-8.9,5-13.5s2.2-9.2,3.6-13.7c1.5-4.6,3.3-9.1,4.7-13.7c1.5-4.7,2.5-9.5,3.7-14.3
		c2.3-9.6,5.3-19,7.5-28.6c1.1-4.7,1.9-9.5,3-14.2s2.6-9.3,4.1-13.9c0.8-2.3,1.6-4.6,2.5-7c0.4-0.9,0.7-1.9,1.2-2.8
		c0.6-0.8,1.4-1.5,2.1-2.1c0.5-0.4,1.1-1.1,1.8-1c0.7,0.1,1.3,0.8,1.5,1.4c0.8,2.2,1.4,4.6,2.1,6.9s1.2,4.7,1.4,7.1
		c0.2,2.5,0.1,5,0.2,7.5c0.1,5,0.1,10.1,0.1,15.1s0,10.1-0.1,15.1c0,5-0.2,10.1,0,15.1c0.1,2.5,0.5,5,0.7,7.4c0.3,0,1.4,0,1.6-0.2
		s0.3-1.4,0.4-1.8c0.2-1.2,0.5-2.4,0.7-3.6c0.5-2.5,1-4.9,1.5-7.4c1.1-5.1,2.1-10.1,3.2-15.2c1.4,3.1,3.3,6,4.5,9.3
		c1.2,3.4,1.5,7.3,1.9,10.9c1,7.6,1.6,15.2,2.6,22.7c0.6,4.2,1.4,8.4,2.2,12.6c1.5-11.8,2.5-23.7,3.6-35.6c0.1-1.5,0.3-2.9,0.4-4.4
		c0-0.2,0-0.7,0.1-0.8c0.1-0.2,0.8-0.4,1-0.4c0.3-0.1,0.7-0.4,1-0.4c0.5-0.1,0.4-0.1,0.7,0.4c1.4,2,3,3.8,4.4,5.8
		c3,4.2,4,9.1,4.8,14.1c0.9,5.5,1.3,11.1,2.6,16.6c1.3,5.3,3.7,10.3,4.9,15.6c0.6,2.7,0.7,5.5,1,8.2c0.3,2.9,0.7,5.8,1.1,8.6
		c0.8,5.6,1.7,11.3,2.8,16.9c1,5.5,2.5,11,3,16.6c0.6,5.5,0.5,10.9,1.1,16.4c0.3,2.7,0.8,5.4,1.5,8c0.7,2.5,1.3,4.8,1.6,7.4
		c0.6,5.4,0.3,10.9,1.3,16.3c0.5,2.7,1.1,5.3,1.4,8c0.3,2.7,0.5,5.5,0.7,8.2c0.3,5.6,0.6,11.3,2,16.8c1.2,4.8,2.8,9.5,3.8,14.4
		c0.5,2.6,0.8,5.3,0.8,8c0,1.3-0.1,2.5-0.3,3.8c-0.2,1.2,0.6,1.7,1.1,2.7c0.8,1.5,1.5,2.6,3.1,3.5c1.3,0.7,2.7,1.2,3.9,1.9
		c3.7,2.3,3.2,7,4.9,10.6c0.4,0.9,1.1,1.7,1.6,2.6c0.7,1.1,1.3,2.3,1.8,3.5c0.9,2.3,1.6,4.6,2.2,7c1.4,5.3,2.8,10.6,4.3,15.9
		c0.2,0.6,0.4,1.2,0.5,1.8c0.2,0.6,0.3,1.5,0.7,2c0.5,0.6,1.7,0.6,2.5,0.8c0.2-2.7,0.4-5.4,0.7-8.1c0.1-0.1,0.2-0.1,0.3-0.2l0,0
		c0.1-0.1,0.2-0.1,0.4-0.2c-0.1,0-0.1,0.1-0.2,0.1c0,0,0.1,0,0.1-0.1c0,0,0.1,0,0.1-0.1c0.2-0.1,0.5-0.2,0.7-0.2
		c-0.1,0-0.2,0-0.3,0.1c0.1,0,0.2,0,0.3-0.1c0.2,0,0.4-0.1,0.6-0.1c-0.1,0-0.1,0-0.2,0c0,0,0,0,0.1,0s0.1,0,0.2,0
		c0.8,0,1.5,0.2,2.1,0.6l0,0c1.5,0.9,2.5,2.8,3.6,4.4c0,0,0,0.1,0.1,0.1c0.1,0.2,0.3,0.4,0.4,0.6c0.1,0.2,0.2,0.3,0.4,0.5
		c-0.1-0.1-0.2-0.3-0.3-0.4c0.3,0.4,0.6,0.8,0.9,1.2c0.4,0.5,0.8,1,1.1,1.6c0,0.1,0.1,0.1,0.1,0.2l0,0l0,0c0-0.1-0.1-0.1-0.1-0.1
		c0.4,0.7,0.7,1.5,1,2.3c-0.1-0.2-0.1-0.4-0.2-0.5c0.7,1.8,1.3,3.7,2.2,5.4c0.6,1.1,1.8,1.7,2.7,2.5l0,0l0,0l0,0v-0.1l0,0l0,0
		c0.1,0,0.1,0.1,0.2,0.1c1-9.8-3.8-16.7-8.5-21.4c-5.7-5.6-8.3-13.2-11.6-20.5l0,0l0,0l0,0l0,0l0,0l0,0c-1.1-2.4-2.2-4.8-3.6-7
		c-4.1-6.5-8.7-12.5-12.2-19.4l0,0c-0.1-0.2-0.2-0.4-0.3-0.6c0.2,0.4,0.5,1,0,0c-0.2-0.4-0.1-0.2,0,0c-0.3-0.5-0.5-1-0.7-1.6
		c-1.8-4.3-2.6-9.9-3.5-14.8c-0.2-1.1-0.5-1.5-0.7-3.5H536v0.4c-2-9.8-3-19.8-2.8-30c0-0.1-0.2-0.2-0.2-0.3c0-1.4,0-2.7,0-4.1l0,0
		c0,0.3,0.2,0.6,0.2,0.9c0-0.3,0.2-0.6,0.2-0.9c0-0.1,0.1-0.1,0.1-0.1v0.1v-0.1c0.1-1.3,0.2-2.5,0.3-3.8c0-0.1,0-0.2,0-0.3
		c0.8-8.2,2.5-16,5.6-23.5c1-2.4,1-5.6,1-9.1c0-0.1,0-0.2,0-0.3c0-1.3,0.1-2.6,0.2-3.9c1.4,1.2,2.5,1.7,3,2.7c0,0.1,0.1,0.2,0.1,0.3
		l0,0c0.1,0.2,0.1,0.3,0.2,0.5c0.4,0.8,0.8,1.6,1.2,2.4c0-0.1-0.1-0.1-0.1-0.2c0.1,0.1,0.1,0.3,0.2,0.4c0.1,0.2,0.1,0.3,0.2,0.5
		c0.3,0.7,0.7,1.5,1,2.2v-0.1c0.1,0.3,0.3,0.6,0.4,0.9c0.3,0.8,0.7,1.6,1,2.5c0.1,0.1,0.1,0.3,0.2,0.4v0.1c0,0.1,0,0.1,0.1,0.2
		c0.1,0.4,0.3,0.8,0.4,1.1c-0.1-0.2-0.1-0.4-0.2-0.5c0.5,1.4,0.9,2.8,1.3,4.3c0-0.1-0.1-0.3-0.1-0.4c0,0.2,0.1,0.3,0.1,0.5
		c0.1,0.4,0.2,0.9,0.3,1.3c0-0.1,0-0.1,0-0.2c0,0.1,0,0.2,0.1,0.3c0,0.1,0,0.2,0,0.3c0.3,1.4,0.5,2.8,0.6,4.3
		c0.1,1.1,0.3,2.2,0.5,3.3c0.8,4.6,2.4,9,3.5,13.5c0.9,3.8,1.7,7.7,2.5,11.6c0.3,1.4,0.6,2.8,1,4.2c1,4.5,2.1,9,3.3,13.5
		c1.8,6.5,3.7,13.1,5.9,19.3c1.2,3.2,2.8,6.1,4.4,9.1c0.1,0.2,0.2,0.3,0.2,0.5c0.4,0.7,0.7,1.5,1.1,2.2l0,0c-0.2-0.4-0.5-1.1,0,0
		c0,0.1,0.1,0.2,0.1,0.3c0.4,0.8,0.6,1.7,1,2.5H574c1,2.4,2,4.9,3,7.5l0,0h0.1c1.2,4.8,3.3,8.3,5.8,11.4c-0.1-0.1-0.1-0.2-0.2-0.3
		c0.1,0.2,0.3,0.3,0.4,0.5c1.6,1.9,3.4,3.6,5.3,5.2c1.3,1.1,2.7,2.3,3.9,3.6l-0.1-0.1c0.1,0.1,0.1,0.1,0.2,0.2
		c0.4,0.4,0.7,0.7,1.1,1.1l0,0l0,0c1.8,2,3.3,4.5,4.1,7.7c0,0.1,0,0.2,0.1,0.3c0.1,0.5,0.2,1,0.3,1.6l0,0c-0.1-0.6-0.2-1.7,0,0l0,0
		c0.2,1.5,1.8,2.5,2.6,3.9c0,0.1,0.1,0.1,0.1,0.2c0.9,1.6,1.5,3.2,2.3,4.9c-0.4-0.9-0.8-1.8-1.2-2.7c3.2,6.9,6.5,13.7,9.1,21
		c0.8,2.2,1.3,4.5,1.8,6.8c0,0,0,0,0,0.1c0.1,0.3,0.1,0.7,0.2,1v-0.1c0.6,3.4,1.2,6.9,2,10.2c0.3,1,0.6,2.1,0.8,3.1
		c0.2,0.6,0.3,1.1,0.5,1.7c0.2,0.8,0.5,1.6,0.7,2.4c0.2,0.6,0.3,1.1,0.5,1.7c0.3,0.9,0.6,1.8,0.9,2.7c0.5,1.6,1,3.2,1.5,4.8
		c0.4,1.4,0.7,2.7,1.1,4.1c-1.1-0.8-2.1-1.7-3.2-2.5c-0.3-0.2-0.6-0.4-1.2-0.9c-1.9,4.2-3,4.4-6.3,0.5c-2-2.4-6.7-2.6-9.6-6
		c1.4,5.5,2.4,11.2,4.2,16.5c0.7,2.1,1.6,4,2.6,5.9c0-0.1-0.1-0.2-0.1-0.3c1.2,2.3,2.8,4.8,3.6,7.4c1,2.6,1.4,4.9-0.9,7.9h0.2
		c-2,1.6-1.9,4.8-2.7,7.4c-5.1,0.3-8.4-1.7-10.6-5.8c0-0.1-0.1-0.2-0.2-0.2c0,0.1,0,0.1,0.1,0.2c-1.2-2.3-2.1-5.3-2.8-9
		c0,0,0,0,0-0.1c0,0,0,0,0,0.1l0,0c0,0,0,0,0-0.1c-1.5-8.3-3.6-17.2-10.9-21.2c-2.3-1.2-4.7-5.4-5.1-8.6c-0.9-6.8-3.2-12.1-6.2-16.9
		c-0.5-0.8-1-1.6-1.6-2.4c0.2,0.3,0.5,0.7,0.7,1c-0.3-0.5-0.6-1-1-1.4c0,0,0,0.1,0.1,0.1c-0.1-0.2-0.3-0.4-0.4-0.6
		c0.1,0.1,0.2,0.3,0.3,0.4c-0.6-0.9-1.2-1.7-1.9-2.6l0,0l0,0l0,0l0,0c-0.2-0.3-0.4-0.8-0.4-1.4c-0.1-0.6-0.1-1.2-0.1-1.9
		c0-0.2,0-0.4,0-0.6c0-0.1,0-0.1,0-0.2c0-0.3-0.1-0.6-0.1-0.8c0-0.2-0.1-0.4-0.2-0.6c-0.6-1.5-1.8-2.5-2.8-3.7
		c0,0.6,0.1,1.2,0.1,1.9c0,1.2-0.1,2.3-0.1,3.5c-0.1,4.6,0.1,9.3,2.1,13.5c0.9,1.9,1.7,3.7,2.2,5.7c0.5,2.1,0.8,4.3,1.2,6.5
		c0.6,4.5,1.5,9,2.4,13.4c1,4.8,2.5,9.4,4.5,13.8s4.3,8.7,6.2,13.1c2,4.5,3.2,9.1,4.3,13.9c0.3,1.2,0.6,2.3,0.8,3.5
		c0.1,0.3,0.2,0.6,0.2,0.9c0.1,0.4,0,0.4,0.4,0.6c0.4,0.1,0.9,0.1,1.3,0.1c1.6,0.3,3.1,1,4.3,2.1c1.2,1.2,2.1,2.7,2.5,4.4
		c0.5,2,0.4,4,0.8,6c0.7,3.6,2.4,6.6,4.7,9.4c0.6,0.7,1.2,1.3,1.8,2c0.6,0.8,0.8,1.9,1.2,2.8c0.6,1.3,1.4,1.3,2.3,0.3
		c0.5-0.6,0.9-1.5,1.5-2c0.5-0.5,1.2-0.8,1.9-1c1.1-0.3,2.6-0.7,3.4,0.4c2.2,3.4,4.2,7.1,5.7,10.8c1.7,4.2,2.4,8.5,2.5,13.1
		c0.1,2.5,0.7,4.6,1.4,6.9c0.8,2.5,1.6,4.9,2.4,7.4c0.8,2.4,1.6,4.7,2.4,7.1c0.1,0.4,0.2,1,0.5,1.4s1.2,0.8,1.7,1.1
		c1.1,0.7,2.2,1.4,3.2,2.1c1.7,1.1,3.3,2.5,5.2,3.3c1,0.4,2.2,0.7,3.2,0.2c2.6-1.2,2.7-5.5,2.8-7.9c0.2-5.1,0.1-10.2,0.4-15.3
		c0.1-2.5,0.3-5,0.4-7.5c2.7,1.3,5.4,2.6,8.1,3.8c0.2,0.1,0.7,0.2,0.9,0.4s0.2,0.5,0.3,0.9c0.1,0.8,0.2,1.6,0.3,2.5
		c0.1,0.7,0.2,1.5,0.3,2.2c0.1,0.4,0,0.9,0.2,1.3c0.1,0.3,0,0.3,0.2,0.4c0.2,0.1,0.5,0.1,0.7,0.1c1.5,0.3,3,0.6,4.5,0.9
		c0.6,0.1,0.6,0.3,0.7,0.9c0.1,0.4,0.2,0.7,0.2,1.1c0.2,0.9,0.4,1.7,0.6,2.6c0.7,3.2,1.4,6.4,2.3,9.5c0.5,1.6,1,3.1,2,4.4
		c0.9,1.2,2,2.3,3,3.5c0.8-1.1,1.3-3,2.7-3.6c1.2-0.5,2.9-0.8,4.2-0.6c1.5,0.3,2.2,2,2.9,3.1c1,1.6,2,3.2,2.9,4.9
		c1,1.7,1.9,3.4,2.8,5.1c0.5,0.8,0.9,1.7,1.4,2.5c0.2,0.4,0.5,1,0.8,1.4c0.4,0.5,0.7,0.3,1.3,0.3c3.6-0.1,7.7-0.7,10.7,1.6
		c1.4,1.1,2.9,2.4,4,3.9c0.5,0.7,1,1.4,1.5,2c0.4,0.6,1,1.5,1.8,1.6c0.4,0.1,2-0.1,2.1-0.4c0.2-0.4,0.1-1.8,0-2.2
		c-0.1-0.8-0.7-1.3-1.3-1.8c-0.8-0.9-1.6-1.7-2.4-2.6c-2.9-3.1-5.8-6.2-8.7-9.3c-0.7-0.7-1.3-1.4-2-2.1c-0.6-0.6-1.3-1.2-1.7-2
		c-0.7-1.5-0.9-3.5-1.3-5.2c-0.9-3.8-1.7-7.7-2.6-11.5c-0.4-2-0.9-4.1-1.3-6.1c-0.1-0.4-0.1-0.9-0.4-1.3c-0.2-0.2-0.5-0.4-0.7-0.6
		c-0.6-0.6-1.3-1.2-1.9-1.7c-2.3-1.9-5.2-3-7.1-5.4c-1.9-2.4-2.5-5.5-2.7-8.4c-0.2-3.5,0.4-7.1-1.4-10.3c-0.8-1.5-1.9-2.9-2.8-4.4
		c-0.8-1.6-1.5-3.2-2.1-4.9c-1.2-3.3-2.2-6.7-3.6-9.9c-1.5-3.6-3.4-7-5-10.5c-0.9-1.8-1.7-3.6-2.5-5.5c-0.7-1.8-1.4-3.6-2.3-5.3
		c-0.9-1.5-1.8-3-2.6-4.6c-0.7-1.6-1-3.1-1.1-4.8c-0.2-2.7-0.5-5.8-2.1-8c-0.6-0.9-1.5-1.6-2.5-1.9c-0.2-0.1-0.6-0.1-0.8-0.2
		c-0.2-0.2-0.3-1.1-0.5-1.4c-0.3-0.9-0.6-1.8-0.9-2.8c-0.5-1.5-1-3.1-1.4-4.6c-1.5,2-3,3.9-4.5,5.9c-1.6-1.7-3.7-2.6-4.2-5.1
		c-0.7-3.2-1.2-6.5-1.7-9.8s-1-6.6-1.4-9.9c-0.2-1.5-0.3-3.1-0.7-4.6c-0.3-1.1-0.8-2.2-1.2-3.3c-1.2,3.1-2.4,6.2-3.6,9.3
		c-3.5-9.8-7.3-19.5-10.4-29.4c-1.7-5.2-3.4-10.4-5.5-15.5s-4.3-10.1-6.4-15.2c-1.8-4.3-2.8-8.9-5.7-12.7c-2.9-3.9-6.5-7.2-9.6-10.9
		c-2.4-2.9-4.7-5.7-5.4-9.5c-0.5-2.3-0.7-4.5-1.7-6.7c-0.9-2.2-2-4.2-3-6.4c-2.1-4.8-2.8-10-3.6-15.1c-0.4-2.6-0.8-5.2-1.3-7.8
		c-0.5-2.6-1.2-5-1.8-7.5c-0.6-2.1-1.4-4.2-0.2-6.2c0.8-1.4,2.7-2.6,4.4-1.8c0.9,0.4,1.6,1.5,2.1,2.3c0.7,1.1,1.4,2.2,1.9,3.4
		c1,2.2,1.9,4.5,3.1,6.7c2.2,4.2,4.6,8.2,6.6,12.5c1,2.3,1.8,4.6,2.6,6.9c0.9,2.4,1.9,4.7,3.1,6.9c2.1,3.9,4.7,7.5,6.9,11.3
		c1.1,1.8,3.2,6,5.8,3.9c1.4-1.1,2-3.1,3.8-3.8c1.1-0.5,2.1,0,2.8,0.9c0.8,0.9,1.3,2.1,1.8,3.2c0.7,1.5,1.5,2.9,2.4,4.4
		c2.6,4.6,4.9,9.4,7.3,14.1c2.3,4.7,4.4,9.6,7.3,13.9c1.4,2,2.1,4.4,2.9,6.6c0.8,2.3,1.7,4.7,2.6,7c1.9,4.6,4.4,9,6.4,13.6
		c4.2,9.8,6.8,20,10.2,30.1c1.7,5.1,3.6,10.2,5.3,15.3c0.8,2.4,1.5,4.9,2.1,7.4c0.5,2.2,1.1,4.5,1.9,6.6c0.7,1.8,1.8,3.4,2.6,5.2
		c0.8,1.7,1.4,3.5,2.2,5.3c0.8,1.6,1.7,3.2,3.1,4.4c0.5,0.5,1.4,0.8,1.8,1.4c0.4,0.7,0.5,1.7,0.5,2.5c0.4,3.4,0.6,7.5,3.5,9.9
		c2.8,2.3,6.8,1.6,10.1,1.5c2.1-0.1,4.2-0.1,6.3,0.4c2.4,0.5,4.5,1.7,6.4,3.2c2.7,2.2,5.9,3.8,8.4,6.1c1.4,1.3,2.5,2.8,3.4,4.5
		c1.1,2.1,1.7,4.3,2.8,6.4c2.2,4.3,4.9,8.3,6.5,13c1.3,4,3.3,7.7,6.1,10.8c1.4,1.5,3,2.8,4.3,4.5c1.4,1.8,2.6,3.6,4,5.4
		c1.2,1.6,2.7,2.9,4,4.4c1.1,1.2,2.1,2.6,3.1,4c1.8,2.3,3.9,5.1,7.1,5.5c0.8,0.1,1.5,0,2.3-0.1c1-0.2,1.8-0.5,2.6,0.3
		c0.9,0.9,1.5,2.1,2.2,3.1c0.8,1.1,1.5,2.2,2.3,3.3c3,4.3,6.5,8,10.3,11.5c0.9,0.8,1.8,1.6,2.7,2.4c0.7,0.6,1,1.3,1.9,0.7
		c1.5-1.1,2.9-2.6,4.2-4c0.2,1.9,0.5,3.8,0.7,5.6c0.1,0.8,0.2,1.6,0.3,2.3c0,0.2,0,1.2,0.2,1.4s1.3,0,1.5,0
		c3.9,0.1,7.8,0.7,11.6-0.2C793.7,636.1,793.2,635.3,792.7,634.5z M630.2,234.1c0.6-0.4,1.9-0.1,2.3,0.5c1.9,3.2,3.7,6.5,5.5,9.9
		c3.8,7.3,7.8,14.5,11.4,22.1c1.7,3.6,2.7,7.7,4.1,11.6c0.4,1.2,1,2.2,1.5,3.3c0.5-1.2,1-2.4,1.3-3.7c0.3-1.3,0.5-2.7,0.7-4
		c0.5-0.1,1.1-0.3,1.6-0.4c1.2,4.2,2.4,8.5,3.6,12.7c1.8,6.6,3.6,13.2,5.3,19.8c0.2,0.9,0.5,1.8,0.5,2.7c-0.1,6.8,2.9,11.8,5.3,17.4
		c2.8,6.4,4.7,13.6,6.6,20.6c0.8,2.8,1.5,3.4,3.3,2c0.4-9.1-2.7-16.8-5.6-24.6c-1.7-4.3-2.7-9.1-4-13.7c0.5-0.6,1-1.3,1.5-1.9
		c2.5,1.9,6.4,3.1,7.3,5.9c2.5,7.9,7.5,13.4,10,21.5c2,6.3,3.9,12.6,5.9,19c1.5,5.1,4.2,9.6,6.4,14.4c1.7,3.7,3.3,7.4,5,11
		c1.6,3.4,3.1,7.1,5,10.1c1,1.5,2.9,1.7,4.4,2.6c2.8,1.6,6.2,2.5,8.1,5.2c1.9,2.8,2.2,7.5,3.2,11.4c1.9,6.8,3.8,13.5,5.7,20.2
		c1.1,4.1,2.2,8.2,3,12.5c1.2,6.7,2.3,13.5,3.2,20.4c0.8,5.4,0.7,10.5-4.7,12.7c-0.5-5.9-1-11.8-1.6-18.2c-1.9,1.7-3,2.7-4.2,3.8
		c-0.7-2.4-1.4-4.7-2-7c-3.5-3.3-7-6.7-10.9-10.4c0.7-5.5-1.9-6.9-5.9-7c-4.3-0.1-4.7-6.1-6.3-9.4c-3.2-6.6-5.8-14.1-6-22.4
		c0-2.1-0.5-4.2-0.9-7.1c-3.9,5-5.8,1.2-7.7-2.4c-0.4-0.9-0.9-1.8-1.5-2.4c-2.1-2-4.2-3.9-6.9-6.3c0,0-0.9,0.8-1.9,1.7
		c-0.4-0.5-0.8-0.9-0.9-1.3c-0.3-2.1-0.7-4.2-0.7-6.3c0.3-8-2.6-14.4-5.1-21.2c-2.4-6.3-3.9-13.2-5.8-20.3c-0.4,0.3-1.4,1.1-2.3,1.8
		c-0.5-0.3-0.9-0.5-0.9-0.7c-0.6-4.9-2.7-7.3-6.5-7.3c-0.9,0-2.2-0.7-2.5-1.6c-1.4-4.2-2.3-8.6-3.7-12.8c-1-3.3-2.3-6.4-3.5-9.5
		c-3.9-9.8-7.4-19.8-13.8-27.5c-1.8-2.1-2.5-6.1-3.1-9.5c-1.4-7.8-2.5-15.8-3.4-23.7c-0.5-3.8-0.5-7.7-0.5-11.6
		C629.1,235.8,629.6,234.4,630.2,234.1z M184.5,535.2c0,0.7-0.1,1.3-0.1,2c-0.1,2.7-0.2,5.3-0.4,8c-0.4,0-1.7,0.2-2-0.1
		c-0.2-0.1,0-1.1,0-1.4c0-0.6,0-1.3,0-1.9c0-2.5,0-5,0-7.5c0,0.1,1.8,0.1,1.9,0.1C184.6,534.4,184.5,534.4,184.5,535.2z M195,525.3
		c0,1.4,0,2.8,0,4.2c0,2.8,0,5.5,0,8.3c-1.4-2.1-2.3-4.4-2.5-6.9c-0.1-1.1,0-2.2,0.1-3.3c0.1-0.6,0.2-1.1,0.3-1.7
		c0.1-0.5,0.2-1.5,0.6-1.8c0.2-0.3,0.6-0.2,1-0.2c0.6,0,0.4,0,0.5,0.4C195.1,524.6,195,525,195,525.3z M326.2,291.7
		c-0.6,5.4-4.7,9.6-7.1,14.3c-1.4-2.2-2.9-4.3-4.3-6.5c-0.5-0.8-1.1-1.7-1.3-2.6c-0.4-1.4,0.1-2.7,0.5-4.1
		c1.7-5.8,3.5-11.6,5.4-17.3c1-2.9,1.7-5.9,2.4-8.9c0.3-1.4,0.7-2.8,1-4.2c0.2-0.8,0.4-1.5,0.6-2.3c0.2-0.6,0.2-1.4,0.6-1.9
		c0.6-1,1.4-0.9,2.1-0.1c1,1,0.7,2.4,0.7,3.7c0,3.1,0.1,6.3,0.1,9.4C326.9,278,326.9,284.9,326.2,291.7z M524.2,232.3
		c0.4,0.2,0.7,0.1,0.9-0.3c2.1-4.7,5.3-9.4,5.8-14.5c0.7-7.1,5.7-10,6.9-16.4c1.1-5.5,7.6-11,11.2-10.1c0,5.6,0.3,11-0.1,16.3
		c-0.3,3.2-1.5,6.4-2.9,9.2c-2.4,4.9-6,9-7.7,14.2c-2.7,8.2-9.4,7.7-11.7,14.9c-0.3-1.1-0.6-2.3-0.8-3.5
		C525.2,238.9,524.7,235.6,524.2,232.3z M533.5,319.3c0-0.1,0-0.2,0-0.2C533.5,319.1,533.5,319.1,533.5,319.3z M547,260.2
		c-0.9-1.1-2-2.4-3.4-2.7c-1.3-0.3-2.4,0-3.3,1c-2.4,2.8-4.2,6.1-6.2,9.1c-1.2-3.4-2.4-6.7-3.7-10c0.3-0.2,0.7-0.8,1-1.8
		c2.4-8.5,9.4-14.8,14-22.3c1.2-2,2.1-4.3,3.1-6.6c4.5-11.1,10.9-20.2,17.1-29.6c3.6-5.5,6.9-11.4,10.3-17.1c0.5-0.9,1.3-1.5,2-2.2
		c0.3,1.1,1,2.4,0.9,3.4c-0.2,1.8-0.9,3.4-1.4,5.1c-0.4,1.4-0.9,2.7-1.4,4c-1.8,5.3-3.8,10.5-5.3,15.9c-0.8,2.8-1.1,6.1-0.8,9
		c0.6,5.6-2.5,9-4.1,13.1c-1.5,3.9-4.8,6.3-5.2,11.4c-0.1,1.4-1.8,2.4-2.5,3.8c-2.9,5.8-5.5,11.8-8.5,17.5c-0.3,0.6-0.5,1.2-0.7,1.9
		C548.4,262.1,547.8,261.1,547,260.2z M594.1,509.7L594.1,509.7L594.1,509.7L594.1,509.7z"/>
	<path style="fill:#302512;" d="M533.2,323.9c0-0.2,0-0.5,0.1-0.9C533.3,323.4,533.2,323.7,533.2,323.9z"/>
	<path style="fill:#302512;" d="M610.7,508.1L610.7,508.1C610.7,508,610.7,508,610.7,508.1C610.7,508,610.7,508,610.7,508.1z"/>
	<path style="fill:#302512;" d="M550,298.5L550,298.5c0-0.1,0-0.3-0.1-0.4C549.9,298.3,550,298.4,550,298.5z"/>
	<path style="fill:#302512;" d="M574.3,440.3L574.3,440.3L574.3,440.3C574.3,440.2,574.3,440.3,574.3,440.3z"/>
	<path style="fill:#302512;" d="M572.4,435.4c0.2,0.5,0.4,0.9,0.5,1.4C572.7,436.3,572.5,435.9,572.4,435.4z"/>
	<path style="fill:#302512;" d="M574.3,440.3L574.3,440.3L574.3,440.3z"/>
</g>
</svg>
