<?xml version="1.0" encoding="iso-8859-1"?>
<!-- Generator: Adobe Illustrator 18.1.1, SVG Export Plug-In . SVG Version: 6.00 Build 0)  -->
<svg version="1.1" id="Layer_1" xmlns="http://www.w3.org/2000/svg" xmlns:xlink="http://www.w3.org/1999/xlink" x="0px" y="0px"
	 viewBox="0 0 800 800" style="enable-background:new 0 0 800 800;" xml:space="preserve">
<path style="fill:#302512;" d="M395.2,528.9c11.8-0.9,32.9-37.3,79.3-108.7c0,0,162.8-303.7,162.1-335.6
	c-0.3-11.8-1.8-16.7-10.1-23.3L618,56c-6.1-2.2-12.5-0.1-22.1,5.5c-27.5,16.1-229.2,293.7-229.2,293.7
	c-43.6,73.1-66.9,108.1-62.5,119.1c1.8,4.4,5,12.9,13.2,18.4l0.3,0.1L246,561.6c-5.5,49.5-16.5,95.1-33,137l13.3,8.4
	c31.4-32.9,69.2-61,113.5-84.5l32.3-98C380.7,529.5,390.4,529.2,395.2,528.9z M324.4,614.5c-4.3,2.9-7,4.7-8.3,5.6
	c-19.5,12.1-47.1,33.4-65.7,48.2l42.6-58.6c3.1-0.2,5.4-0.5,6.8-1c10.4-3.6,13.8-10.5,10.2-20.7c-3.6-10.4-10.7-13.7-21.3-10
	c-10.6,3.7-14.1,10.7-10.4,21.1l1.2,2.3l-38,61c4.3-17.8,13.5-43.9,15.1-58.9c2-17.8,3.3-28.8,3.9-32.9L348,487
	c7.5,3.3,14.4,7.5,20.5,12.7L324.4,614.5z"/>
</svg>
